<?xml version="1.0" encoding="UTF-8" standalone="no"?>
<!DOCTYPE svg PUBLIC "-//W3C//DTD SVG 1.1//EN" "http://www.w3.org/Graphics/SVG/1.1/DTD/svg11.dtd">
<svg width="100%" height="100%" viewBox="0 0 40 40" version="1.1" xmlns="http://www.w3.org/2000/svg" xmlns:xlink="http://www.w3.org/1999/xlink" xml:space="preserve" xmlns:serif="http://www.serif.com/" style="fill-rule:evenodd;clip-rule:evenodd;stroke-linejoin:round;stroke-miterlimit:2;">
    <g>
        <g transform="matrix(1,0,0,1,15.6878,16.2865)">
            <circle cx="4.312" cy="3.714" r="16.286" style="fill:rgb(0,179,255);"/>
        </g>
        <g transform="matrix(1,0,0,1,-5.87256,9.0627)">
            <g transform="matrix(24,0,0,24,18.5601,19.3103)">
                <path d="M0.463,-0.595L0.231,-0.595L0.203,-0.437C0.249,-0.462 0.292,-0.474 0.331,-0.474C0.362,-0.474 0.392,-0.468 0.419,-0.457C0.446,-0.445 0.47,-0.429 0.49,-0.408C0.511,-0.387 0.527,-0.363 0.539,-0.334C0.55,-0.306 0.556,-0.276 0.556,-0.243C0.556,-0.196 0.546,-0.153 0.524,-0.114C0.503,-0.076 0.473,-0.045 0.433,-0.022C0.393,0.001 0.347,0.012 0.295,0.012C0.237,0.012 0.189,0.001 0.153,-0.02C0.117,-0.042 0.091,-0.066 0.076,-0.094C0.061,-0.122 0.053,-0.146 0.053,-0.167C0.053,-0.18 0.059,-0.192 0.069,-0.203C0.08,-0.215 0.093,-0.22 0.109,-0.22C0.136,-0.22 0.157,-0.204 0.17,-0.173C0.183,-0.144 0.201,-0.121 0.223,-0.105C0.245,-0.089 0.27,-0.081 0.297,-0.081C0.322,-0.081 0.344,-0.088 0.363,-0.101C0.382,-0.114 0.396,-0.132 0.406,-0.154C0.417,-0.177 0.422,-0.203 0.422,-0.232C0.422,-0.263 0.416,-0.29 0.405,-0.312C0.394,-0.334 0.379,-0.351 0.361,-0.362C0.342,-0.372 0.322,-0.378 0.299,-0.378C0.271,-0.378 0.251,-0.375 0.239,-0.368C0.227,-0.361 0.209,-0.349 0.187,-0.332C0.164,-0.315 0.146,-0.306 0.131,-0.306C0.115,-0.306 0.101,-0.312 0.088,-0.323C0.076,-0.335 0.07,-0.348 0.07,-0.363C0.07,-0.364 0.072,-0.375 0.075,-0.396L0.116,-0.63C0.121,-0.658 0.129,-0.678 0.142,-0.691C0.154,-0.704 0.174,-0.71 0.202,-0.71L0.46,-0.71C0.511,-0.71 0.536,-0.691 0.536,-0.652C0.536,-0.635 0.53,-0.621 0.518,-0.611C0.505,-0.6 0.487,-0.595 0.463,-0.595Z" style="fill:rgb(0,87,132);fill-rule:nonzero;"/>
            </g>
        </g>
    </g>
</svg>
