<?xml version="1.0" encoding="UTF-8" standalone="no"?>
<!DOCTYPE svg PUBLIC "-//W3C//DTD SVG 1.1//EN" "http://www.w3.org/Graphics/SVG/1.1/DTD/svg11.dtd">
<svg width="100%" height="100%" viewBox="0 0 40 40" version="1.1" xmlns="http://www.w3.org/2000/svg" xmlns:xlink="http://www.w3.org/1999/xlink" xml:space="preserve" xmlns:serif="http://www.serif.com/" style="fill-rule:evenodd;clip-rule:evenodd;stroke-linejoin:round;stroke-miterlimit:2;">
    <g>
        <g transform="matrix(1,0,0,1,15.6878,16.2865)">
            <circle cx="4.312" cy="3.714" r="16.286" style="fill:rgb(0,179,255);"/>
        </g>
        <g transform="matrix(1,0,0,1,-5.79639,9.18575)">
            <g transform="matrix(24,0,0,24,18.5601,19.3103)">
                <path d="M0.181,-0.387C0.203,-0.414 0.227,-0.433 0.253,-0.446C0.279,-0.458 0.309,-0.465 0.341,-0.465C0.372,-0.465 0.4,-0.459 0.427,-0.448C0.453,-0.436 0.476,-0.42 0.495,-0.398C0.515,-0.377 0.53,-0.352 0.541,-0.323C0.552,-0.294 0.557,-0.264 0.557,-0.232C0.557,-0.186 0.547,-0.144 0.526,-0.107C0.505,-0.069 0.475,-0.04 0.438,-0.019C0.4,0.002 0.358,0.012 0.31,0.012C0.255,0.012 0.208,-0.001 0.168,-0.028C0.129,-0.055 0.098,-0.094 0.077,-0.146C0.056,-0.198 0.046,-0.262 0.046,-0.338C0.046,-0.399 0.052,-0.454 0.065,-0.503C0.078,-0.551 0.096,-0.592 0.12,-0.624C0.143,-0.655 0.172,-0.68 0.206,-0.696C0.24,-0.712 0.278,-0.72 0.322,-0.72C0.363,-0.72 0.4,-0.712 0.432,-0.696C0.464,-0.68 0.488,-0.659 0.504,-0.635C0.52,-0.611 0.528,-0.588 0.528,-0.566C0.528,-0.553 0.523,-0.54 0.513,-0.53C0.503,-0.519 0.49,-0.513 0.474,-0.513C0.46,-0.513 0.448,-0.517 0.436,-0.526C0.424,-0.535 0.416,-0.547 0.41,-0.562C0.403,-0.582 0.391,-0.597 0.375,-0.609C0.358,-0.621 0.339,-0.627 0.318,-0.627C0.301,-0.627 0.283,-0.622 0.266,-0.612C0.249,-0.602 0.235,-0.589 0.223,-0.572C0.199,-0.537 0.185,-0.476 0.181,-0.387ZM0.313,-0.084C0.346,-0.084 0.373,-0.097 0.395,-0.124C0.416,-0.151 0.427,-0.186 0.427,-0.23C0.427,-0.26 0.422,-0.285 0.412,-0.306C0.402,-0.328 0.388,-0.344 0.37,-0.355C0.353,-0.366 0.333,-0.372 0.312,-0.372C0.292,-0.372 0.273,-0.367 0.254,-0.356C0.236,-0.345 0.221,-0.33 0.21,-0.309C0.198,-0.289 0.193,-0.265 0.193,-0.238C0.193,-0.194 0.204,-0.157 0.227,-0.128C0.25,-0.099 0.278,-0.084 0.313,-0.084Z" style="fill:rgb(0,87,132);fill-rule:nonzero;"/>
            </g>
        </g>
    </g>
</svg>
