<?xml version="1.0" encoding="UTF-8" standalone="no"?>
<!DOCTYPE svg PUBLIC "-//W3C//DTD SVG 1.1//EN" "http://www.w3.org/Graphics/SVG/1.1/DTD/svg11.dtd">
<svg width="100%" height="100%" viewBox="0 0 40 40" version="1.1" xmlns="http://www.w3.org/2000/svg" xmlns:xlink="http://www.w3.org/1999/xlink" xml:space="preserve" xmlns:serif="http://www.serif.com/" style="fill-rule:evenodd;clip-rule:evenodd;stroke-linejoin:round;stroke-miterlimit:2;">
    <g>
        <g transform="matrix(1,0,0,1,15.6878,16.2865)">
            <circle cx="4.312" cy="3.714" r="16.286" style="fill:rgb(0,179,255);"/>
        </g>
        <g transform="matrix(1,0,0,1,-5.73193,9.17403)">
            <g transform="matrix(24,0,0,24,18.5601,19.3103)">
                <path d="M0.274,-0.432C0.304,-0.432 0.33,-0.441 0.351,-0.458C0.373,-0.476 0.384,-0.501 0.384,-0.534C0.384,-0.559 0.375,-0.581 0.358,-0.599C0.341,-0.617 0.317,-0.626 0.288,-0.626C0.268,-0.626 0.252,-0.623 0.239,-0.618C0.226,-0.612 0.216,-0.605 0.208,-0.596C0.201,-0.587 0.194,-0.575 0.187,-0.561C0.181,-0.546 0.174,-0.533 0.169,-0.52C0.166,-0.513 0.16,-0.508 0.151,-0.504C0.143,-0.5 0.133,-0.498 0.122,-0.498C0.109,-0.498 0.097,-0.503 0.086,-0.514C0.075,-0.524 0.07,-0.539 0.07,-0.556C0.07,-0.573 0.075,-0.591 0.085,-0.61C0.095,-0.628 0.11,-0.646 0.13,-0.663C0.15,-0.68 0.174,-0.694 0.204,-0.704C0.233,-0.714 0.266,-0.719 0.302,-0.719C0.333,-0.719 0.362,-0.715 0.388,-0.706C0.414,-0.698 0.437,-0.685 0.456,-0.669C0.475,-0.653 0.49,-0.634 0.5,-0.612C0.509,-0.591 0.514,-0.568 0.514,-0.543C0.514,-0.51 0.507,-0.483 0.493,-0.459C0.479,-0.436 0.458,-0.413 0.432,-0.391C0.458,-0.377 0.479,-0.362 0.496,-0.344C0.514,-0.327 0.527,-0.307 0.536,-0.286C0.544,-0.265 0.549,-0.242 0.549,-0.217C0.549,-0.187 0.543,-0.159 0.531,-0.131C0.519,-0.103 0.502,-0.079 0.479,-0.057C0.455,-0.035 0.428,-0.018 0.396,-0.006C0.365,0.006 0.329,0.012 0.291,0.012C0.252,0.012 0.217,0.005 0.186,-0.009C0.155,-0.023 0.13,-0.04 0.11,-0.061C0.09,-0.082 0.074,-0.104 0.064,-0.126C0.054,-0.149 0.049,-0.167 0.049,-0.182C0.049,-0.201 0.055,-0.216 0.067,-0.228C0.079,-0.239 0.095,-0.245 0.113,-0.245C0.122,-0.245 0.131,-0.242 0.139,-0.237C0.148,-0.232 0.153,-0.225 0.156,-0.218C0.173,-0.173 0.191,-0.139 0.21,-0.117C0.23,-0.095 0.257,-0.084 0.292,-0.084C0.312,-0.084 0.332,-0.089 0.35,-0.099C0.369,-0.109 0.385,-0.124 0.397,-0.143C0.409,-0.163 0.415,-0.185 0.415,-0.211C0.415,-0.249 0.405,-0.279 0.384,-0.301C0.363,-0.322 0.334,-0.333 0.297,-0.333C0.29,-0.333 0.28,-0.332 0.267,-0.331C0.253,-0.33 0.244,-0.329 0.24,-0.329C0.222,-0.329 0.208,-0.334 0.199,-0.343C0.189,-0.351 0.184,-0.364 0.184,-0.38C0.184,-0.396 0.19,-0.408 0.202,-0.418C0.213,-0.427 0.231,-0.432 0.254,-0.432L0.274,-0.432Z" style="fill:rgb(0,87,132);fill-rule:nonzero;"/>
            </g>
        </g>
    </g>
</svg>
