<?xml version="1.0" encoding="UTF-8" standalone="no"?>
<!DOCTYPE svg PUBLIC "-//W3C//DTD SVG 1.1//EN" "http://www.w3.org/Graphics/SVG/1.1/DTD/svg11.dtd">
<svg width="100%" height="100%" viewBox="0 0 150 150" version="1.1" xmlns="http://www.w3.org/2000/svg" xmlns:xlink="http://www.w3.org/1999/xlink" xml:space="preserve" xmlns:serif="http://www.serif.com/" style="fill-rule:evenodd;clip-rule:evenodd;stroke-linecap:round;stroke-linejoin:round;stroke-miterlimit:1.5;">
    <g transform="matrix(1.00959,0,0,1.00959,-1.29277,-2.52654)">
        <path d="M145.083,42.317C145.083,23.291 129.636,7.844 110.61,7.844L40.527,7.844C21.5,7.844 6.053,23.291 6.053,42.317L6.053,111.264C6.053,130.29 21.5,145.737 40.527,145.737L110.61,145.737C129.636,145.737 145.083,130.29 145.083,111.264L145.083,42.317Z" style="fill:rgb(40,40,40);stroke:rgb(80,80,80);stroke-width:9.91px;"/>
    </g>
    <g transform="matrix(0.178869,0,0,0.178869,29.2094,29.2095)">
        <path d="M504,255.531C504.253,392.171 392.82,503.903 256.18,503.999C197.165,504.041 142.957,483.469 100.358,449.088C89.281,440.148 88.453,423.547 98.519,413.481L109.786,402.214C118.395,393.605 132.139,392.663 141.677,400.23C173.062,425.135 212.781,440 256,440C357.705,440 440,357.689 440,256C440,154.295 357.689,72 256,72C207.186,72 162.851,90.969 129.932,121.932L180.686,172.686C190.766,182.766 183.627,200 169.373,200L24,200C15.163,200 8,192.837 8,184L8,38.627C8,24.373 25.234,17.234 35.314,27.313L84.686,76.685C129.209,34.136 189.552,8 256,8C392.81,8 503.747,118.78 504,255.531ZM323.088,334.315L332.911,321.685C341.049,311.222 339.164,296.143 328.701,288.006L288,256.349L288,152C288,138.745 277.255,128 264,128L248,128C234.745,128 224,138.745 224,152L224,287.651L289.409,338.525C299.872,346.662 314.95,344.778 323.088,334.315Z" style="fill:rgb(255,83,0);fill-rule:nonzero;"/>
    </g>
</svg>
