<?xml version="1.0" encoding="UTF-8" standalone="no"?>
<!DOCTYPE svg PUBLIC "-//W3C//DTD SVG 1.1//EN" "http://www.w3.org/Graphics/SVG/1.1/DTD/svg11.dtd">
<svg width="100%" height="100%" viewBox="0 0 250 250" version="1.1" xmlns="http://www.w3.org/2000/svg" xmlns:xlink="http://www.w3.org/1999/xlink" xml:space="preserve" xmlns:serif="http://www.serif.com/" style="fill-rule:evenodd;clip-rule:evenodd;stroke-linecap:round;stroke-linejoin:round;stroke-miterlimit:1.5;">
    <g transform="matrix(1.02466,0,0,1.02466,-3.08192,-3.08192)">
        <circle cx="125" cy="125" r="121.992"/>
    </g>
    <circle cx="125" cy="125" r="101.435" style="fill:rgb(6,79,255);"/>
    <circle cx="125" cy="125" r="82.394" style="fill:none;"/>
    <g transform="matrix(1.31802,0,0,1.31802,-39.753,-39.753)">
        <circle cx="125" cy="125" r="61.363" style="fill:rgb(230,26,26);stroke:black;stroke-width:0.75px;"/>
    </g>
    <g transform="matrix(1.01771,0,0,1.01771,-2.21364,-2.21364)">
        <circle cx="125" cy="125" r="42.796" style="fill:rgb(229,242,13);stroke:black;stroke-width:0.98px;"/>
    </g>
    <g transform="matrix(0.752803,0,0,0.752803,30.8997,30.8997)">
        <circle cx="125" cy="125" r="82.394" style="fill:none;stroke:black;stroke-width:1.33px;"/>
    </g>
    <g transform="matrix(0.317045,0,0,0.317045,85.3694,85.3694)">
        <circle cx="125" cy="125" r="82.394" style="fill:none;stroke:black;stroke-width:3.15px;"/>
    </g>
    <g transform="matrix(0.10664,0,0,0.10664,111.67,111.67)">
        <circle cx="125" cy="125" r="82.394" style="fill:none;stroke:black;stroke-width:9.38px;"/>
    </g>
    <g transform="matrix(1.66915,0,0,1.66915,-83.0922,-141.35)">
        <g transform="matrix(0.897527,0,0,0.897527,8.47289,19.1846)">
            <path d="M183.45,177.885C183.45,172.735 179.269,168.553 174.119,168.553L85.544,168.553C80.394,168.553 76.213,172.735 76.213,177.885L76.213,196.547C76.213,201.697 80.394,205.878 85.544,205.878L174.119,205.878C179.269,205.878 183.45,201.697 183.45,196.547L183.45,177.885Z" style="stroke:rgb(255,179,6);stroke-width:1.54px;"/>
        </g>
        <g transform="matrix(3.73875,0,0,3.73875,-251.17,-505.758)">
            <path d="M99.305,184.913L99.741,185.349L99.305,185.785L96.468,185.785L96.032,185.349L96.468,184.913L99.305,184.913ZM99.959,185.458L100.177,185.676L100.177,188.731C100.105,189.022 99.923,189.204 99.632,189.276L99.305,188.404L99.305,186.113L99.959,185.458ZM99.414,189.276L96.141,189.276C95.85,189.204 95.668,189.022 95.596,188.731L96.468,188.404L99.086,188.404L99.414,189.276ZM99.086,182.294L96.479,182.294L95.606,181.967C95.679,181.676 95.861,181.494 96.152,181.422L99.414,181.422L99.086,182.294ZM96.468,182.513L96.468,184.585L95.814,185.24L95.596,185.022L95.596,182.185L96.468,182.513ZM99.305,184.585L99.305,182.294L99.632,181.422C99.923,181.494 100.105,181.676 100.177,181.967L100.177,185.022L99.959,185.24L99.305,184.585Z" style="fill:white;fill-opacity:0.9;"/>
        </g>
        <g transform="matrix(3.73875,0,0,3.73875,-251.17,-505.758)">
            <path d="M105.414,185.458L105.632,185.676L105.632,188.731C105.559,189.022 105.377,189.204 105.086,189.276L104.759,188.404L104.759,186.113L105.414,185.458ZM104.868,189.276L101.596,189.276C101.305,189.204 101.123,189.022 101.05,188.731L101.923,188.404L104.541,188.404L104.868,189.276ZM101.05,188.513L101.05,185.676L101.268,185.458L101.923,186.113L101.923,188.185L101.05,188.513ZM104.541,182.294L101.934,182.294L101.061,181.967C101.134,181.676 101.316,181.494 101.606,181.422L104.868,181.422L104.541,182.294ZM101.923,182.513L101.923,184.585L101.268,185.24L101.05,185.022L101.05,182.185L101.923,182.513ZM104.759,184.585L104.759,182.294L105.086,181.422C105.377,181.494 105.559,181.676 105.632,181.967L105.632,185.022L105.414,185.24L104.759,184.585Z" style="fill:white;fill-opacity:0.9;"/>
        </g>
    </g>
</svg>
