<?xml version="1.0" encoding="UTF-8" standalone="no"?>
<!DOCTYPE svg PUBLIC "-//W3C//DTD SVG 1.1//EN" "http://www.w3.org/Graphics/SVG/1.1/DTD/svg11.dtd">
<svg width="100%" height="100%" viewBox="0 0 150 150" version="1.1" xmlns="http://www.w3.org/2000/svg" xmlns:xlink="http://www.w3.org/1999/xlink" xml:space="preserve" xmlns:serif="http://www.serif.com/" style="fill-rule:evenodd;clip-rule:evenodd;stroke-linecap:round;stroke-linejoin:round;stroke-miterlimit:1.5;">
    <g transform="matrix(1.00959,0,0,1.00959,-1.29277,-2.52654)">
        <path d="M145.083,42.317C145.083,23.291 129.636,7.844 110.61,7.844L40.527,7.844C21.5,7.844 6.053,23.291 6.053,42.317L6.053,111.264C6.053,130.29 21.5,145.737 40.527,145.737L110.61,145.737C129.636,145.737 145.083,130.29 145.083,111.264L145.083,42.317Z" style="fill:rgb(40,40,40);stroke:rgb(80,80,80);stroke-width:9.91px;"/>
    </g>
    <g transform="matrix(0.173279,0,0,0.173279,19.5506,30.6405)">
        <path d="M112,192C112,178.834 101.166,168 88,168L24,168C10.834,168 -0,178.834 0,192C0,205.166 10.834,216 24,216L88,216C101.166,216 112,205.166 112,192ZM51.66,64.78L107.08,96.78C110.817,99.03 115.097,100.219 119.459,100.219C132.625,100.219 143.459,89.385 143.459,76.219C143.459,67.5 138.708,59.442 131.08,55.22L75.66,23.22C71.923,20.97 67.643,19.781 63.281,19.781C50.115,19.781 39.281,30.615 39.281,43.781C39.281,52.5 44.032,60.558 51.66,64.78ZM520.94,100C525.154,100.008 529.296,98.897 532.94,96.78L588.36,64.78C595.563,60.443 599.981,52.627 599.981,44.219C599.981,31.053 589.147,20.219 575.981,20.219C571.916,20.219 567.917,21.252 564.36,23.22L508.94,55.22C501.528,59.503 496.948,67.44 496.948,76C496.948,89.163 507.777,99.996 520.94,100ZM320,512C355.109,512 384,483.109 384,448L256,448C256,483.109 284.891,512 320,512ZM616,168L552,168C538.834,168 528,178.834 528,192C528,205.166 538.834,216 552,216L616,216C629.166,216 640,205.166 640,192C640,178.834 629.166,168 616,168ZM479.92,208C479.92,130.31 425.44,68.09 351.98,52.84L351.98,32C351.98,14.445 337.535,0 319.98,0C302.425,-0 287.98,14.445 287.98,32L287.98,52.84C214.56,68.09 160.08,130.31 160.08,208C160.08,310.31 123.94,341.53 104.61,362.28C99.044,368.134 95.957,375.922 96,384C96.11,400.41 109,416 128.09,416L511.91,416C531.02,416 543.91,400.41 544,384C544.048,375.922 540.96,368.131 535.39,362.28C516.06,341.53 479.92,310.31 479.92,208Z" style="fill:rgb(255,185,0);fill-rule:nonzero;"/>
    </g>
</svg>
