<?xml version="1.0" encoding="UTF-8" standalone="no"?>
<!DOCTYPE svg PUBLIC "-//W3C//DTD SVG 1.1//EN" "http://www.w3.org/Graphics/SVG/1.1/DTD/svg11.dtd">
<svg width="100%" height="100%" viewBox="0 0 150 150" version="1.1" xmlns="http://www.w3.org/2000/svg" xmlns:xlink="http://www.w3.org/1999/xlink" xml:space="preserve" xmlns:serif="http://www.serif.com/" style="fill-rule:evenodd;clip-rule:evenodd;stroke-linecap:round;stroke-linejoin:round;stroke-miterlimit:1.5;">
    <g transform="matrix(1.00959,0,0,1.00959,-1.29277,-2.52654)">
        <path d="M145.083,42.317C145.083,23.291 129.636,7.844 110.61,7.844L40.527,7.844C21.5,7.844 6.053,23.291 6.053,42.317L6.053,111.264C6.053,130.29 21.5,145.737 40.527,145.737L110.61,145.737C129.636,145.737 145.083,130.29 145.083,111.264L145.083,42.317Z" style="fill:rgb(40,40,40);stroke:rgb(80,80,80);stroke-width:9.91px;"/>
    </g>
    <g transform="matrix(0.184468,0,0,0.184468,29.252,23.7219)">
        <path d="M328.2,255.8L479.8,255.8C488.9,255.8 496.6,248.1 496,239C490.9,163.2 451.6,96.8 393.5,54.8C386.1,49.5 375.6,51.9 370.8,59.6L290.4,188C313,202.3 328.2,227.2 328.2,255.8ZM290.4,323.5C278.1,331.2 263.6,335.9 248,335.9C232.4,335.9 218,331.2 205.6,323.5L125.2,452C120.4,459.7 122.8,470.1 130.8,474.4C165.7,493.2 205.6,504 248,504C290.4,504 330.3,493.2 365.2,474.4C373.2,470.1 375.6,459.6 370.8,452L290.4,323.5ZM248,303.8C274.5,303.8 296,282.3 296,255.8C296,229.3 274.5,207.8 248,207.8C221.5,207.8 200,229.3 200,255.8C200,282.3 221.5,303.8 248,303.8ZM16.2,255.8L167.8,255.8C167.8,227.2 183,202.3 205.6,188.1L125.2,59.7C120.4,52 109.9,49.5 102.5,54.9C44.4,96.9 5.1,163.3 0,239.1C-0.6,248.1 7.1,255.8 16.2,255.8Z" style="fill:rgb(255,229,0);fill-rule:nonzero;"/>
    </g>
</svg>
