STARTFONT 2.1
FONT -FontForge-Upheaval TT (BRK)-Book-R-Normal--20-720-20-20-P-109-ISO10646-1
SIZE 72 20 20
FONTBOUNDINGBOX 18 18 0 -3
COMMENT "Generated by fontforge, http://fontforge.sourceforge.net"
COMMENT "NIGMA FONTS   [e-mail]  kentpw@norwich.net"
STARTPROPERTIES 39
FOUNDRY "FontForge"
FAMILY_NAME "Upheaval TT (BRK)"
WEIGHT_NAME "Book"
SLANT "R"
SETWIDTH_NAME "Normal"
ADD_STYLE_NAME ""
PIXEL_SIZE 20
POINT_SIZE 720
RESOLUTION_X 20
RESOLUTION_Y 20
SPACING "P"
AVERAGE_WIDTH 109
CHARSET_REGISTRY "ISO10646"
CHARSET_ENCODING "1"
FONTNAME_REGISTRY ""
CHARSET_COLLECTIONS "ISO10646-1"
FONT_NAME "UpheavalTT-BRK-"
FACE_NAME "Upheaval TT -BRK-"
COPYRIGHT "NIGMA FONTS   [e-mail]  kentpw@norwich.net"
FONT_VERSION "2.09"
FONT_ASCENT 16
FONT_DESCENT 4
UNDERLINE_POSITION -2
UNDERLINE_THICKNESS 1
X_HEIGHT 9
CAP_HEIGHT 9
RAW_ASCENT 800
RAW_DESCENT 200
NORM_SPACE 7
RELATIVE_WEIGHT 40
RELATIVE_SETWIDTH 50
SUPERSCRIPT_X 0
SUPERSCRIPT_Y 2
SUPERSCRIPT_SIZE 2
SUBSCRIPT_X 0
SUBSCRIPT_Y 2
SUBSCRIPT_SIZE 2
AVG_LOWERCASE_WIDTH 119
AVG_UPPERCASE_WIDTH 121
ENDPROPERTIES
CHARS 228
STARTCHAR space
ENCODING 32
SWIDTH 350 0
DWIDTH 7 0
BBX 1 1 0 0
BITMAP
00
ENDCHAR
STARTCHAR exclam
ENCODING 33
SWIDTH 250 0
DWIDTH 5 0
BBX 4 10 0 0
BITMAP
F0
F0
F0
F0
F0
F0
F0
00
F0
F0
ENDCHAR
STARTCHAR quotedbl
ENCODING 34
SWIDTH 400 0
DWIDTH 8 0
BBX 7 2 0 8
BITMAP
EE
EE
ENDCHAR
STARTCHAR numbersign
ENCODING 35
SWIDTH 600 0
DWIDTH 12 0
BBX 11 10 0 0
BITMAP
7BC0
7BC0
FFE0
FFE0
7BC0
7BC0
FFE0
FFE0
7BC0
7BC0
ENDCHAR
STARTCHAR dollar
ENCODING 36
SWIDTH 600 0
DWIDTH 12 0
BBX 11 12 0 -1
BITMAP
0E00
7FE0
FFE0
F000
F000
FFC0
7FE0
01E0
01E0
FFE0
FFC0
0E00
ENDCHAR
STARTCHAR percent
ENCODING 37
SWIDTH 650 0
DWIDTH 13 0
BBX 12 10 0 0
BITMAP
60F0
F1F0
F3E0
67C0
0F80
1F00
3E60
7CF0
F8F0
F060
ENDCHAR
STARTCHAR ampersand
ENCODING 38
SWIDTH 600 0
DWIDTH 12 0
BBX 11 12 0 -1
BITMAP
0E00
7FE0
FFE0
F000
F000
FE00
FE00
F000
F000
FFE0
7FE0
0E00
ENDCHAR
STARTCHAR quotesingle
ENCODING 39
SWIDTH 200 0
DWIDTH 4 0
BBX 3 2 0 8
BITMAP
E0
E0
ENDCHAR
STARTCHAR parenleft
ENCODING 40
SWIDTH 400 0
DWIDTH 8 0
BBX 7 10 0 0
BITMAP
7E
FE
F0
F0
F0
F0
F0
F0
FE
7E
ENDCHAR
STARTCHAR parenright
ENCODING 41
SWIDTH 400 0
DWIDTH 8 0
BBX 7 10 0 0
BITMAP
FC
FE
1E
1E
1E
1E
1E
1E
FE
FC
ENDCHAR
STARTCHAR asterisk
ENCODING 42
SWIDTH 500 0
DWIDTH 10 0
BBX 9 7 0 3
BITMAP
0800
DD80
FF80
7F00
3E00
7700
6300
ENDCHAR
STARTCHAR plus
ENCODING 43
SWIDTH 600 0
DWIDTH 12 0
BBX 11 6 0 2
BITMAP
0E00
0E00
FFE0
FFE0
0E00
0E00
ENDCHAR
STARTCHAR comma
ENCODING 44
SWIDTH 200 0
DWIDTH 4 0
BBX 3 4 0 -2
BITMAP
E0
E0
E0
E0
ENDCHAR
STARTCHAR minus
ENCODING 45
SWIDTH 600 0
DWIDTH 12 0
BBX 11 2 0 4
BITMAP
FFE0
FFE0
ENDCHAR
STARTCHAR period
ENCODING 46
SWIDTH 200 0
DWIDTH 4 0
BBX 3 2 0 0
BITMAP
E0
E0
ENDCHAR
STARTCHAR slash
ENCODING 47
SWIDTH 650 0
DWIDTH 13 0
BBX 12 10 0 0
BITMAP
00F0
01F0
03E0
07C0
0F80
1F00
3E00
7C00
F800
F000
ENDCHAR
STARTCHAR zero
ENCODING 48
SWIDTH 600 0
DWIDTH 12 0
BBX 11 10 0 0
BITMAP
7FC0
FFE0
F1E0
F1E0
F1E0
F1E0
F1E0
F1E0
FFE0
7FC0
ENDCHAR
STARTCHAR one
ENCODING 49
SWIDTH 250 0
DWIDTH 5 0
BBX 4 10 0 0
BITMAP
F0
F0
F0
F0
F0
F0
F0
F0
F0
F0
ENDCHAR
STARTCHAR two
ENCODING 50
SWIDTH 600 0
DWIDTH 12 0
BBX 11 10 0 0
BITMAP
FFC0
FFE0
01E0
01E0
7FE0
FFC0
F000
F000
FFE0
FFE0
ENDCHAR
STARTCHAR three
ENCODING 51
SWIDTH 600 0
DWIDTH 12 0
BBX 11 10 0 0
BITMAP
FFC0
FFE0
01E0
01E0
0FC0
0FC0
01E0
01E0
FFE0
FFC0
ENDCHAR
STARTCHAR four
ENCODING 52
SWIDTH 600 0
DWIDTH 12 0
BBX 11 10 0 0
BITMAP
F1E0
F1E0
F1E0
F1E0
FFE0
7FE0
01E0
01E0
01E0
01E0
ENDCHAR
STARTCHAR five
ENCODING 53
SWIDTH 600 0
DWIDTH 12 0
BBX 11 10 0 0
BITMAP
FFE0
FFE0
F000
F000
FFC0
7FE0
01E0
01E0
FFE0
FFC0
ENDCHAR
STARTCHAR six
ENCODING 54
SWIDTH 600 0
DWIDTH 12 0
BBX 11 10 0 0
BITMAP
7FE0
FFE0
F000
F000
FFC0
FFE0
F1E0
F1E0
FFE0
7FC0
ENDCHAR
STARTCHAR seven
ENCODING 55
SWIDTH 600 0
DWIDTH 12 0
BBX 11 10 0 0
BITMAP
FFE0
FFE0
03E0
07C0
0F80
1F00
3E00
7C00
F800
F000
ENDCHAR
STARTCHAR eight
ENCODING 56
SWIDTH 600 0
DWIDTH 12 0
BBX 11 10 0 0
BITMAP
7FC0
FFE0
F1E0
F1E0
7FC0
7FC0
F1E0
F1E0
FFE0
7FC0
ENDCHAR
STARTCHAR nine
ENCODING 57
SWIDTH 600 0
DWIDTH 12 0
BBX 11 10 0 0
BITMAP
7FC0
FFE0
F1E0
F1E0
FFE0
7FE0
01E0
01E0
01E0
01E0
ENDCHAR
STARTCHAR colon
ENCODING 58
SWIDTH 200 0
DWIDTH 4 0
BBX 3 10 0 0
BITMAP
E0
E0
00
00
00
00
00
00
E0
E0
ENDCHAR
STARTCHAR semicolon
ENCODING 59
SWIDTH 200 0
DWIDTH 4 0
BBX 3 12 0 -2
BITMAP
E0
E0
00
00
00
00
00
00
E0
E0
E0
E0
ENDCHAR
STARTCHAR less
ENCODING 60
SWIDTH 450 0
DWIDTH 9 0
BBX 8 10 0 0
BITMAP
0F
1F
3E
7C
F8
F8
7C
3E
1F
0F
ENDCHAR
STARTCHAR equal
ENCODING 61
SWIDTH 600 0
DWIDTH 12 0
BBX 11 6 0 2
BITMAP
FFE0
FFE0
0000
0000
FFE0
FFE0
ENDCHAR
STARTCHAR greater
ENCODING 62
SWIDTH 450 0
DWIDTH 9 0
BBX 8 10 0 0
BITMAP
F0
F8
7C
3E
1F
1F
3E
7C
F8
F0
ENDCHAR
STARTCHAR question
ENCODING 63
SWIDTH 600 0
DWIDTH 12 0
BBX 11 10 0 0
BITMAP
7FC0
FFE0
F1E0
F1E0
07E0
0FC0
0E00
0000
0E00
0E00
ENDCHAR
STARTCHAR at
ENCODING 64
SWIDTH 700 0
DWIDTH 14 0
BBX 13 10 0 0
BITMAP
7FF0
FFF8
F078
F778
F578
F578
F7F0
F000
FFF8
7FF8
ENDCHAR
STARTCHAR A
ENCODING 65
SWIDTH 600 0
DWIDTH 12 0
BBX 11 10 0 0
BITMAP
7FC0
FFE0
F1E0
F1E0
FFE0
FFE0
F1E0
F1E0
F1E0
F1E0
ENDCHAR
STARTCHAR B
ENCODING 66
SWIDTH 600 0
DWIDTH 12 0
BBX 11 10 0 0
BITMAP
FFC0
FFE0
F1E0
F1E0
FFC0
FFC0
F1E0
F1E0
FFE0
FFC0
ENDCHAR
STARTCHAR C
ENCODING 67
SWIDTH 600 0
DWIDTH 12 0
BBX 11 10 0 0
BITMAP
7FC0
FFE0
F1E0
F1E0
F000
F000
F1E0
F1E0
FFE0
7FC0
ENDCHAR
STARTCHAR D
ENCODING 68
SWIDTH 600 0
DWIDTH 12 0
BBX 11 10 0 0
BITMAP
FF80
FFC0
F3E0
F1E0
F1E0
F1E0
F1E0
F3E0
FFC0
FF80
ENDCHAR
STARTCHAR E
ENCODING 69
SWIDTH 600 0
DWIDTH 12 0
BBX 11 10 0 0
BITMAP
7FE0
FFE0
F000
F000
FE00
FE00
F000
F000
FFE0
7FE0
ENDCHAR
STARTCHAR F
ENCODING 70
SWIDTH 600 0
DWIDTH 12 0
BBX 11 10 0 0
BITMAP
7FE0
FFE0
F000
F000
FE00
FE00
F000
F000
F000
F000
ENDCHAR
STARTCHAR G
ENCODING 71
SWIDTH 600 0
DWIDTH 12 0
BBX 11 10 0 0
BITMAP
7FE0
FFE0
F000
F000
F7C0
F7E0
F1E0
F1E0
FFE0
7FC0
ENDCHAR
STARTCHAR H
ENCODING 72
SWIDTH 600 0
DWIDTH 12 0
BBX 11 10 0 0
BITMAP
F1E0
F1E0
F1E0
F1E0
FFE0
FFE0
F1E0
F1E0
F1E0
F1E0
ENDCHAR
STARTCHAR I
ENCODING 73
SWIDTH 550 0
DWIDTH 11 0
BBX 10 10 0 0
BITMAP
FFC0
FFC0
1E00
1E00
1E00
1E00
1E00
1E00
FFC0
FFC0
ENDCHAR
STARTCHAR J
ENCODING 74
SWIDTH 600 0
DWIDTH 12 0
BBX 11 10 0 0
BITMAP
01E0
01E0
01E0
01E0
01E0
01E0
F1E0
F1E0
FFE0
7FC0
ENDCHAR
STARTCHAR K
ENCODING 75
SWIDTH 650 0
DWIDTH 13 0
BBX 12 10 0 0
BITMAP
F1F0
F3F0
F7E0
FFC0
FF80
FF80
FFC0
F7E0
F3F0
F1F0
ENDCHAR
STARTCHAR L
ENCODING 76
SWIDTH 600 0
DWIDTH 12 0
BBX 11 10 0 0
BITMAP
F000
F000
F000
F000
F000
F000
F000
F000
FFE0
FFE0
ENDCHAR
STARTCHAR M
ENCODING 77
SWIDTH 700 0
DWIDTH 14 0
BBX 13 10 0 0
BITMAP
F078
F8F8
FDF8
FFF8
FFF8
F778
F278
F078
F078
F078
ENDCHAR
STARTCHAR N
ENCODING 78
SWIDTH 600 0
DWIDTH 12 0
BBX 11 10 0 0
BITMAP
F1E0
F9E0
FDE0
FFE0
FFE0
F7E0
F3E0
F1E0
F1E0
F1E0
ENDCHAR
STARTCHAR O
ENCODING 79
SWIDTH 600 0
DWIDTH 12 0
BBX 11 10 0 0
BITMAP
7FC0
FFE0
F1E0
F1E0
F1E0
F1E0
F1E0
F1E0
FFE0
7FC0
ENDCHAR
STARTCHAR P
ENCODING 80
SWIDTH 600 0
DWIDTH 12 0
BBX 11 10 0 0
BITMAP
FFC0
FFE0
F1E0
F1E0
FFE0
FFC0
F000
F000
F000
F000
ENDCHAR
STARTCHAR Q
ENCODING 81
SWIDTH 600 0
DWIDTH 12 0
BBX 11 12 0 -2
BITMAP
7FC0
FFE0
F1E0
F1E0
F1E0
F1E0
F1E0
F1E0
FFE0
7FC0
0E00
0E00
ENDCHAR
STARTCHAR R
ENCODING 82
SWIDTH 600 0
DWIDTH 12 0
BBX 11 10 0 0
BITMAP
FFC0
FFE0
F1E0
F1E0
FFC0
FFC0
F1E0
F1E0
F1E0
F1E0
ENDCHAR
STARTCHAR S
ENCODING 83
SWIDTH 600 0
DWIDTH 12 0
BBX 11 10 0 0
BITMAP
7FE0
FFE0
F000
F000
FFC0
7FE0
01E0
01E0
FFE0
FFC0
ENDCHAR
STARTCHAR T
ENCODING 84
SWIDTH 550 0
DWIDTH 11 0
BBX 10 10 0 0
BITMAP
FFC0
FFC0
1E00
1E00
1E00
1E00
1E00
1E00
1E00
1E00
ENDCHAR
STARTCHAR U
ENCODING 85
SWIDTH 600 0
DWIDTH 12 0
BBX 11 10 0 0
BITMAP
F1E0
F1E0
F1E0
F1E0
F1E0
F1E0
F1E0
F1E0
FFE0
7FC0
ENDCHAR
STARTCHAR V
ENCODING 86
SWIDTH 600 0
DWIDTH 12 0
BBX 11 10 0 0
BITMAP
F1E0
F1E0
F1E0
F1E0
F1E0
F3E0
F7C0
FF80
FF00
FE00
ENDCHAR
STARTCHAR W
ENCODING 87
SWIDTH 700 0
DWIDTH 14 0
BBX 13 10 0 0
BITMAP
F078
F078
F078
F278
F778
FFF8
FFF8
FDF8
F8F8
F078
ENDCHAR
STARTCHAR X
ENCODING 88
SWIDTH 600 0
DWIDTH 12 0
BBX 11 10 0 0
BITMAP
E0E0
F1E0
FBE0
7FC0
3F80
3F80
7FC0
FBE0
F1E0
E0E0
ENDCHAR
STARTCHAR Y
ENCODING 89
SWIDTH 650 0
DWIDTH 13 0
BBX 12 10 0 0
BITMAP
F0F0
F0F0
F0F0
F9F0
7FE0
3FC0
0F00
0F00
0F00
0F00
ENDCHAR
STARTCHAR Z
ENCODING 90
SWIDTH 600 0
DWIDTH 12 0
BBX 11 10 0 0
BITMAP
FFE0
FFE0
03E0
07C0
0F80
1F00
3E00
7C00
FFE0
FFE0
ENDCHAR
STARTCHAR bracketleft
ENCODING 91
SWIDTH 400 0
DWIDTH 8 0
BBX 7 10 0 0
BITMAP
FE
FE
F0
F0
F0
F0
F0
F0
FE
FE
ENDCHAR
STARTCHAR backslash
ENCODING 92
SWIDTH 650 0
DWIDTH 13 0
BBX 12 10 0 0
BITMAP
F000
F800
7C00
3E00
1F00
0F80
07C0
03E0
01F0
00F0
ENDCHAR
STARTCHAR bracketright
ENCODING 93
SWIDTH 400 0
DWIDTH 8 0
BBX 7 10 0 0
BITMAP
FE
FE
1E
1E
1E
1E
1E
1E
FE
FE
ENDCHAR
STARTCHAR asciicircum
ENCODING 94
SWIDTH 500 0
DWIDTH 10 0
BBX 9 6 0 4
BITMAP
1C00
3E00
7F00
FF80
F780
E380
ENDCHAR
STARTCHAR underscore
ENCODING 95
SWIDTH 600 0
DWIDTH 12 0
BBX 11 2 0 -3
BITMAP
FFE0
FFE0
ENDCHAR
STARTCHAR grave
ENCODING 96
SWIDTH 200 0
DWIDTH 4 0
BBX 3 2 0 8
BITMAP
E0
E0
ENDCHAR
STARTCHAR a
ENCODING 97
SWIDTH 600 0
DWIDTH 12 0
BBX 11 10 0 0
BITMAP
7FC0
FFE0
F1E0
F1E0
FFE0
FFE0
F1E0
F1E0
F1E0
F1E0
ENDCHAR
STARTCHAR b
ENCODING 98
SWIDTH 600 0
DWIDTH 12 0
BBX 11 10 0 0
BITMAP
FFC0
FFE0
F1E0
F1E0
FFC0
FFC0
F1E0
F1E0
FFE0
FFC0
ENDCHAR
STARTCHAR c
ENCODING 99
SWIDTH 600 0
DWIDTH 12 0
BBX 11 10 0 0
BITMAP
7FC0
FFE0
F1E0
F1E0
F000
F000
F1E0
F1E0
FFE0
7FC0
ENDCHAR
STARTCHAR d
ENCODING 100
SWIDTH 600 0
DWIDTH 12 0
BBX 11 10 0 0
BITMAP
FF80
FFC0
F3E0
F1E0
F1E0
F1E0
F1E0
F3E0
FFC0
FF80
ENDCHAR
STARTCHAR e
ENCODING 101
SWIDTH 600 0
DWIDTH 12 0
BBX 11 10 0 0
BITMAP
7FE0
FFE0
F000
F000
FE00
FE00
F000
F000
FFE0
7FE0
ENDCHAR
STARTCHAR f
ENCODING 102
SWIDTH 600 0
DWIDTH 12 0
BBX 11 10 0 0
BITMAP
7FE0
FFE0
F000
F000
FE00
FE00
F000
F000
F000
F000
ENDCHAR
STARTCHAR g
ENCODING 103
SWIDTH 600 0
DWIDTH 12 0
BBX 11 10 0 0
BITMAP
7FE0
FFE0
F000
F000
F7C0
F7E0
F1E0
F1E0
FFE0
7FC0
ENDCHAR
STARTCHAR h
ENCODING 104
SWIDTH 600 0
DWIDTH 12 0
BBX 11 10 0 0
BITMAP
F1E0
F1E0
F1E0
F1E0
FFE0
FFE0
F1E0
F1E0
F1E0
F1E0
ENDCHAR
STARTCHAR i
ENCODING 105
SWIDTH 550 0
DWIDTH 11 0
BBX 10 10 0 0
BITMAP
FFC0
FFC0
1E00
1E00
1E00
1E00
1E00
1E00
FFC0
FFC0
ENDCHAR
STARTCHAR j
ENCODING 106
SWIDTH 600 0
DWIDTH 12 0
BBX 11 10 0 0
BITMAP
01E0
01E0
01E0
01E0
01E0
01E0
F1E0
F1E0
FFE0
7FC0
ENDCHAR
STARTCHAR k
ENCODING 107
SWIDTH 650 0
DWIDTH 13 0
BBX 12 10 0 0
BITMAP
F1F0
F3F0
F7E0
FFC0
FF80
FF80
FFC0
F7E0
F3F0
F1F0
ENDCHAR
STARTCHAR l
ENCODING 108
SWIDTH 600 0
DWIDTH 12 0
BBX 11 10 0 0
BITMAP
F000
F000
F000
F000
F000
F000
F000
F000
FFE0
FFE0
ENDCHAR
STARTCHAR m
ENCODING 109
SWIDTH 700 0
DWIDTH 14 0
BBX 13 10 0 0
BITMAP
F078
F8F8
FDF8
FFF8
FFF8
F778
F278
F078
F078
F078
ENDCHAR
STARTCHAR n
ENCODING 110
SWIDTH 600 0
DWIDTH 12 0
BBX 11 10 0 0
BITMAP
F1E0
F9E0
FDE0
FFE0
FFE0
F7E0
F3E0
F1E0
F1E0
F1E0
ENDCHAR
STARTCHAR o
ENCODING 111
SWIDTH 600 0
DWIDTH 12 0
BBX 11 10 0 0
BITMAP
7FC0
FFE0
F1E0
F1E0
F1E0
F1E0
F1E0
F1E0
FFE0
7FC0
ENDCHAR
STARTCHAR p
ENCODING 112
SWIDTH 600 0
DWIDTH 12 0
BBX 11 10 0 0
BITMAP
FFC0
FFE0
F1E0
F1E0
FFE0
FFC0
F000
F000
F000
F000
ENDCHAR
STARTCHAR q
ENCODING 113
SWIDTH 600 0
DWIDTH 12 0
BBX 11 12 0 -2
BITMAP
7FC0
FFE0
F1E0
F1E0
F1E0
F1E0
F1E0
F1E0
FFE0
7FC0
0E00
0E00
ENDCHAR
STARTCHAR r
ENCODING 114
SWIDTH 600 0
DWIDTH 12 0
BBX 11 10 0 0
BITMAP
FFC0
FFE0
F1E0
F1E0
FFC0
FFC0
F1E0
F1E0
F1E0
F1E0
ENDCHAR
STARTCHAR s
ENCODING 115
SWIDTH 600 0
DWIDTH 12 0
BBX 11 10 0 0
BITMAP
7FE0
FFE0
F000
F000
FFC0
7FE0
01E0
01E0
FFE0
FFC0
ENDCHAR
STARTCHAR t
ENCODING 116
SWIDTH 550 0
DWIDTH 11 0
BBX 10 10 0 0
BITMAP
FFC0
FFC0
1E00
1E00
1E00
1E00
1E00
1E00
1E00
1E00
ENDCHAR
STARTCHAR u
ENCODING 117
SWIDTH 600 0
DWIDTH 12 0
BBX 11 10 0 0
BITMAP
F1E0
F1E0
F1E0
F1E0
F1E0
F1E0
F1E0
F1E0
FFE0
7FC0
ENDCHAR
STARTCHAR v
ENCODING 118
SWIDTH 600 0
DWIDTH 12 0
BBX 11 10 0 0
BITMAP
F1E0
F1E0
F1E0
F1E0
F1E0
F3E0
F7C0
FF80
FF00
FE00
ENDCHAR
STARTCHAR w
ENCODING 119
SWIDTH 700 0
DWIDTH 14 0
BBX 13 10 0 0
BITMAP
F078
F078
F078
F278
F778
FFF8
FFF8
FDF8
F8F8
F078
ENDCHAR
STARTCHAR x
ENCODING 120
SWIDTH 600 0
DWIDTH 12 0
BBX 11 10 0 0
BITMAP
E0E0
F1E0
FBE0
7FC0
3F80
3F80
7FC0
FBE0
F1E0
E0E0
ENDCHAR
STARTCHAR y
ENCODING 121
SWIDTH 650 0
DWIDTH 13 0
BBX 12 10 0 0
BITMAP
F0F0
F0F0
F0F0
F9F0
7FE0
3FC0
0F00
0F00
0F00
0F00
ENDCHAR
STARTCHAR z
ENCODING 122
SWIDTH 600 0
DWIDTH 12 0
BBX 11 10 0 0
BITMAP
FFE0
FFE0
03E0
07C0
0F80
1F00
3E00
7C00
FFE0
FFE0
ENDCHAR
STARTCHAR braceleft
ENCODING 123
SWIDTH 450 0
DWIDTH 9 0
BBX 8 10 0 0
BITMAP
3F
7F
78
78
F0
F0
78
78
7F
3F
ENDCHAR
STARTCHAR bar
ENCODING 124
SWIDTH 250 0
DWIDTH 5 0
BBX 4 12 0 -1
BITMAP
F0
F0
F0
F0
F0
F0
F0
F0
F0
F0
F0
F0
ENDCHAR
STARTCHAR braceright
ENCODING 125
SWIDTH 450 0
DWIDTH 9 0
BBX 8 10 0 0
BITMAP
FC
FE
1E
1E
0F
0F
1E
1E
FE
FC
ENDCHAR
STARTCHAR asciitilde
ENCODING 126
SWIDTH 750 0
DWIDTH 15 0
BBX 14 6 0 2
BITMAP
3E3C
7F3C
FFBC
F7FC
F3F8
F1F0
ENDCHAR
STARTCHAR .0127
ENCODING 127
SWIDTH 600 0
DWIDTH 12 0
BBX 11 10 0 0
BITMAP
FFE0
9F20
CE60
E4E0
F1E0
F1E0
E4E0
CE60
9F20
FFE0
ENDCHAR
STARTCHAR .0128
ENCODING 128
SWIDTH 600 0
DWIDTH 12 0
BBX 11 10 0 0
BITMAP
FFE0
9F20
CE60
E4E0
F1E0
F1E0
E4E0
CE60
9F20
FFE0
ENDCHAR
STARTCHAR .0129
ENCODING 129
SWIDTH 600 0
DWIDTH 12 0
BBX 11 10 0 0
BITMAP
FFE0
9F20
CE60
E4E0
F1E0
F1E0
E4E0
CE60
9F20
FFE0
ENDCHAR
STARTCHAR .0141
ENCODING 141
SWIDTH 600 0
DWIDTH 12 0
BBX 11 10 0 0
BITMAP
FFE0
9F20
CE60
E4E0
F1E0
F1E0
E4E0
CE60
9F20
FFE0
ENDCHAR
STARTCHAR .0142
ENCODING 142
SWIDTH 600 0
DWIDTH 12 0
BBX 11 10 0 0
BITMAP
FFE0
9F20
CE60
E4E0
F1E0
F1E0
E4E0
CE60
9F20
FFE0
ENDCHAR
STARTCHAR .0143
ENCODING 143
SWIDTH 600 0
DWIDTH 12 0
BBX 11 10 0 0
BITMAP
FFE0
9F20
CE60
E4E0
F1E0
F1E0
E4E0
CE60
9F20
FFE0
ENDCHAR
STARTCHAR .0144
ENCODING 144
SWIDTH 600 0
DWIDTH 12 0
BBX 11 10 0 0
BITMAP
FFE0
9F20
CE60
E4E0
F1E0
F1E0
E4E0
CE60
9F20
FFE0
ENDCHAR
STARTCHAR .0157
ENCODING 157
SWIDTH 600 0
DWIDTH 12 0
BBX 11 10 0 0
BITMAP
FFE0
9F20
CE60
E4E0
F1E0
F1E0
E4E0
CE60
9F20
FFE0
ENDCHAR
STARTCHAR .0158
ENCODING 158
SWIDTH 600 0
DWIDTH 12 0
BBX 11 10 0 0
BITMAP
FFE0
9F20
CE60
E4E0
F1E0
F1E0
E4E0
CE60
9F20
FFE0
ENDCHAR
STARTCHAR .0160
ENCODING 160
SWIDTH 350 0
DWIDTH 7 0
BBX 1 1 0 0
BITMAP
00
ENDCHAR
STARTCHAR exclamdown
ENCODING 161
SWIDTH 250 0
DWIDTH 5 0
BBX 4 10 0 0
BITMAP
F0
F0
00
F0
F0
F0
F0
F0
F0
F0
ENDCHAR
STARTCHAR cent
ENCODING 162
SWIDTH 600 0
DWIDTH 12 0
BBX 11 14 0 -2
BITMAP
0E00
0E00
7FC0
FFE0
F1E0
F1E0
F000
F000
F1E0
F1E0
FFE0
7FC0
0E00
0E00
ENDCHAR
STARTCHAR sterling
ENCODING 163
SWIDTH 650 0
DWIDTH 13 0
BBX 12 10 0 0
BITMAP
1FE0
3FF0
7CF0
7860
FC00
FC00
7800
78F0
FFF0
FFC0
ENDCHAR
STARTCHAR currency
ENCODING 164
SWIDTH 550 0
DWIDTH 11 0
BBX 10 10 0 0
BITMAP
C0C0
DEC0
3F00
7F80
7380
7380
7F80
3F00
DEC0
C0C0
ENDCHAR
STARTCHAR yen
ENCODING 165
SWIDTH 650 0
DWIDTH 13 0
BBX 12 12 0 -2
BITMAP
F0F0
F0F0
F0F0
F9F0
7FE0
3FC0
0F00
3FC0
0F00
3FC0
0F00
0F00
ENDCHAR
STARTCHAR brokenbar
ENCODING 166
SWIDTH 250 0
DWIDTH 5 0
BBX 4 14 0 -2
BITMAP
F0
F0
F0
F0
F0
F0
00
00
F0
F0
F0
F0
F0
F0
ENDCHAR
STARTCHAR section
ENCODING 167
SWIDTH 600 0
DWIDTH 12 0
BBX 11 14 0 -2
BITMAP
7FE0
FFE0
F000
F000
FFC0
FFE0
F1E0
F1E0
FFE0
7FE0
01E0
01E0
FFE0
FFC0
ENDCHAR
STARTCHAR dieresis
ENCODING 168
SWIDTH 450 0
DWIDTH 9 0
BBX 8 3 0 12
BITMAP
E7
E7
E7
ENDCHAR
STARTCHAR copyright
ENCODING 169
SWIDTH 750 0
DWIDTH 15 0
BBX 14 10 0 0
BITMAP
7FF8
FFFC
F03C
F3BC
F63C
F63C
F3BC
F03C
FFFC
7FF8
ENDCHAR
STARTCHAR ordfeminine
ENCODING 170
SWIDTH 350 0
DWIDTH 7 0
BBX 6 5 0 5
BITMAP
FC
0C
FC
CC
FC
ENDCHAR
STARTCHAR guillemotleft
ENCODING 171
SWIDTH 550 0
DWIDTH 11 0
BBX 10 8 0 1
BITMAP
18C0
39C0
7380
E700
E700
7380
39C0
18C0
ENDCHAR
STARTCHAR logicalnot
ENCODING 172
SWIDTH 400 0
DWIDTH 8 0
BBX 7 4 0 2
BITMAP
FE
FE
0E
0E
ENDCHAR
STARTCHAR hyphen
ENCODING 173
SWIDTH 250 0
DWIDTH 5 0
BBX 4 2 0 4
BITMAP
F0
F0
ENDCHAR
STARTCHAR registered
ENCODING 174
SWIDTH 750 0
DWIDTH 15 0
BBX 14 10 0 0
BITMAP
7FF8
FFFC
F03C
F7BC
F6BC
F73C
F6BC
F03C
FFFC
7FF8
ENDCHAR
STARTCHAR macron
ENCODING 175
SWIDTH 600 0
DWIDTH 12 0
BBX 11 2 0 11
BITMAP
FFE0
FFE0
ENDCHAR
STARTCHAR degree
ENCODING 176
SWIDTH 400 0
DWIDTH 8 0
BBX 7 4 0 11
BITMAP
FE
C6
C6
FE
ENDCHAR
STARTCHAR plusminus
ENCODING 177
SWIDTH 600 0
DWIDTH 12 0
BBX 11 10 0 0
BITMAP
0E00
0E00
FFE0
FFE0
0E00
0E00
0000
0000
FFE0
FFE0
ENDCHAR
STARTCHAR twosuperior
ENCODING 178
SWIDTH 350 0
DWIDTH 7 0
BBX 6 5 0 5
BITMAP
FC
0C
FC
C0
FC
ENDCHAR
STARTCHAR threesuperior
ENCODING 179
SWIDTH 350 0
DWIDTH 7 0
BBX 6 5 0 5
BITMAP
FC
0C
FC
0C
FC
ENDCHAR
STARTCHAR acute
ENCODING 180
SWIDTH 250 0
DWIDTH 5 0
BBX 4 4 0 11
BITMAP
30
70
E0
C0
ENDCHAR
STARTCHAR mu
ENCODING 181
SWIDTH 600 0
DWIDTH 12 0
BBX 11 13 0 -3
BITMAP
F1E0
F1E0
F1E0
F1E0
F1E0
F1E0
F1E0
F1E0
FFE0
FFC0
F000
F000
F000
ENDCHAR
STARTCHAR paragraph
ENCODING 182
SWIDTH 450 0
DWIDTH 9 0
BBX 8 10 0 0
BITMAP
7F
FF
F6
F6
F6
76
36
36
36
36
ENDCHAR
STARTCHAR periodcentered
ENCODING 183
SWIDTH 250 0
DWIDTH 5 0
BBX 4 4 0 3
BITMAP
F0
F0
F0
F0
ENDCHAR
STARTCHAR cedilla
ENCODING 184
SWIDTH 250 0
DWIDTH 5 0
BBX 4 3 0 -3
BITMAP
70
70
E0
ENDCHAR
STARTCHAR onesuperior
ENCODING 185
SWIDTH 150 0
DWIDTH 3 0
BBX 2 5 0 5
BITMAP
C0
C0
C0
C0
C0
ENDCHAR
STARTCHAR ordmasculine
ENCODING 186
SWIDTH 350 0
DWIDTH 7 0
BBX 6 5 0 5
BITMAP
FC
CC
CC
CC
FC
ENDCHAR
STARTCHAR guillemotright
ENCODING 187
SWIDTH 550 0
DWIDTH 11 0
BBX 10 8 0 1
BITMAP
C600
E700
7380
39C0
39C0
7380
E700
C600
ENDCHAR
STARTCHAR onequarter
ENCODING 188
SWIDTH 650 0
DWIDTH 13 0
BBX 12 10 0 0
BITMAP
60F0
E1F0
63E0
67C0
0F80
1F00
3EB0
7CB0
F8F0
F030
ENDCHAR
STARTCHAR onehalf
ENCODING 189
SWIDTH 650 0
DWIDTH 13 0
BBX 12 10 0 0
BITMAP
60F0
E1F0
63E0
67C0
0F80
1F00
3EF0
7C30
F8C0
F0F0
ENDCHAR
STARTCHAR threequarters
ENCODING 190
SWIDTH 650 0
DWIDTH 13 0
BBX 12 10 0 0
BITMAP
F0F0
71F0
33E0
F7C0
0F80
1F00
3EB0
7CB0
F8F0
F030
ENDCHAR
STARTCHAR questiondown
ENCODING 191
SWIDTH 600 0
DWIDTH 12 0
BBX 11 10 0 0
BITMAP
0E00
0E00
0000
0E00
7E00
FC00
F1E0
F1E0
FFE0
7FC0
ENDCHAR
STARTCHAR Agrave
ENCODING 192
SWIDTH 600 0
DWIDTH 12 0
BBX 11 15 0 0
BITMAP
1800
1C00
0E00
0600
0000
7FC0
FFE0
F1E0
F1E0
FFE0
FFE0
F1E0
F1E0
F1E0
F1E0
ENDCHAR
STARTCHAR Aacute
ENCODING 193
SWIDTH 600 0
DWIDTH 12 0
BBX 11 15 0 0
BITMAP
0300
0700
0E00
0C00
0000
7FC0
FFE0
F1E0
F1E0
FFE0
FFE0
F1E0
F1E0
F1E0
F1E0
ENDCHAR
STARTCHAR Acircumflex
ENCODING 194
SWIDTH 600 0
DWIDTH 12 0
BBX 11 15 0 0
BITMAP
0400
0E00
1B00
3180
0000
7FC0
FFE0
F1E0
F1E0
FFE0
FFE0
F1E0
F1E0
F1E0
F1E0
ENDCHAR
STARTCHAR Atilde
ENCODING 195
SWIDTH 600 0
DWIDTH 12 0
BBX 11 15 0 0
BITMAP
1980
3D80
3780
3300
0000
7FC0
FFE0
F1E0
F1E0
FFE0
FFE0
F1E0
F1E0
F1E0
F1E0
ENDCHAR
STARTCHAR Adieresis
ENCODING 196
SWIDTH 600 0
DWIDTH 12 0
BBX 11 15 0 0
BITMAP
71C0
71C0
71C0
0000
0000
7FC0
FFE0
F1E0
F1E0
FFE0
FFE0
F1E0
F1E0
F1E0
F1E0
ENDCHAR
STARTCHAR Aring
ENCODING 197
SWIDTH 600 0
DWIDTH 12 0
BBX 11 15 0 0
BITMAP
3F80
3180
3180
3F80
0000
7FC0
FFE0
F1E0
F1E0
FFE0
FFE0
F1E0
F1E0
F1E0
F1E0
ENDCHAR
STARTCHAR AE
ENCODING 198
SWIDTH 700 0
DWIDTH 14 0
BBX 13 10 0 0
BITMAP
7FF8
FFF8
E700
E700
FFC0
FFC0
E700
E700
E7F8
E7F8
ENDCHAR
STARTCHAR Ccedilla
ENCODING 199
SWIDTH 600 0
DWIDTH 12 0
BBX 11 13 0 -3
BITMAP
7FC0
FFE0
F1E0
F1E0
F000
F000
F1E0
F1E0
FFE0
7FC0
0E00
0E00
1C00
ENDCHAR
STARTCHAR Egrave
ENCODING 200
SWIDTH 600 0
DWIDTH 12 0
BBX 11 15 0 0
BITMAP
1800
1C00
0E00
0600
0000
7FE0
FFE0
F000
F000
FE00
FE00
F000
F000
FFE0
7FE0
ENDCHAR
STARTCHAR Eacute
ENCODING 201
SWIDTH 600 0
DWIDTH 12 0
BBX 11 15 0 0
BITMAP
0300
0700
0E00
0C00
0000
7FE0
FFE0
F000
F000
FE00
FE00
F000
F000
FFE0
7FE0
ENDCHAR
STARTCHAR Ecircumflex
ENCODING 202
SWIDTH 600 0
DWIDTH 12 0
BBX 11 15 0 0
BITMAP
0400
0E00
1B00
3180
0000
7FE0
FFE0
F000
F000
FE00
FE00
F000
F000
FFE0
7FE0
ENDCHAR
STARTCHAR Edieresis
ENCODING 203
SWIDTH 600 0
DWIDTH 12 0
BBX 11 15 0 0
BITMAP
71C0
71C0
71C0
0000
0000
7FE0
FFE0
F000
F000
FE00
FE00
F000
F000
FFE0
7FE0
ENDCHAR
STARTCHAR Igrave
ENCODING 204
SWIDTH 550 0
DWIDTH 11 0
BBX 10 15 0 0
BITMAP
1800
1C00
0E00
0600
0000
FFC0
FFC0
1E00
1E00
1E00
1E00
1E00
1E00
FFC0
FFC0
ENDCHAR
STARTCHAR Iacute
ENCODING 205
SWIDTH 550 0
DWIDTH 11 0
BBX 10 15 0 0
BITMAP
0600
0E00
1C00
1800
0000
FFC0
FFC0
1E00
1E00
1E00
1E00
1E00
1E00
FFC0
FFC0
ENDCHAR
STARTCHAR Icircumflex
ENCODING 206
SWIDTH 550 0
DWIDTH 11 0
BBX 10 15 0 0
BITMAP
0C00
1E00
3300
6180
0000
FFC0
FFC0
1E00
1E00
1E00
1E00
1E00
1E00
FFC0
FFC0
ENDCHAR
STARTCHAR Idieresis
ENCODING 207
SWIDTH 550 0
DWIDTH 11 0
BBX 10 15 0 0
BITMAP
7380
7380
7380
0000
0000
FFC0
FFC0
1E00
1E00
1E00
1E00
1E00
1E00
FFC0
FFC0
ENDCHAR
STARTCHAR Eth
ENCODING 208
SWIDTH 650 0
DWIDTH 13 0
BBX 12 10 0 0
BITMAP
7FC0
7FE0
79F0
78F0
FCF0
FCF0
78F0
79F0
7FE0
7FC0
ENDCHAR
STARTCHAR Ntilde
ENCODING 209
SWIDTH 600 0
DWIDTH 12 0
BBX 11 15 0 0
BITMAP
1980
3D80
3780
3300
0000
F1E0
F9E0
FDE0
FFE0
FFE0
F7E0
F3E0
F1E0
F1E0
F1E0
ENDCHAR
STARTCHAR Ograve
ENCODING 210
SWIDTH 600 0
DWIDTH 12 0
BBX 11 15 0 0
BITMAP
1800
1C00
0E00
0600
0000
7FC0
FFE0
F1E0
F1E0
F1E0
F1E0
F1E0
F1E0
FFE0
7FC0
ENDCHAR
STARTCHAR Oacute
ENCODING 211
SWIDTH 600 0
DWIDTH 12 0
BBX 11 15 0 0
BITMAP
0300
0700
0E00
0C00
0000
7FC0
FFE0
F1E0
F1E0
F1E0
F1E0
F1E0
F1E0
FFE0
7FC0
ENDCHAR
STARTCHAR Ocircumflex
ENCODING 212
SWIDTH 600 0
DWIDTH 12 0
BBX 11 15 0 0
BITMAP
0400
0E00
1B00
3180
0000
7FC0
FFE0
F1E0
F1E0
F1E0
F1E0
F1E0
F1E0
FFE0
7FC0
ENDCHAR
STARTCHAR Otilde
ENCODING 213
SWIDTH 600 0
DWIDTH 12 0
BBX 11 15 0 0
BITMAP
1980
3D80
3780
3300
0000
7FC0
FFE0
F1E0
F1E0
F1E0
F1E0
F1E0
F1E0
FFE0
7FC0
ENDCHAR
STARTCHAR Odieresis
ENCODING 214
SWIDTH 600 0
DWIDTH 12 0
BBX 11 15 0 0
BITMAP
71C0
71C0
71C0
0000
0000
7FC0
FFE0
F1E0
F1E0
F1E0
F1E0
F1E0
F1E0
FFE0
7FC0
ENDCHAR
STARTCHAR multiply
ENCODING 215
SWIDTH 450 0
DWIDTH 9 0
BBX 8 8 0 1
BITMAP
C3
E7
7E
3C
3C
7E
E7
C3
ENDCHAR
STARTCHAR Oslash
ENCODING 216
SWIDTH 600 0
DWIDTH 12 0
BBX 11 14 0 -2
BITMAP
0060
00E0
7FC0
FFE0
F3E0
F7E0
F7E0
FDE0
FDE0
F9E0
FFE0
7FC0
E000
C000
ENDCHAR
STARTCHAR Ugrave
ENCODING 217
SWIDTH 600 0
DWIDTH 12 0
BBX 11 15 0 0
BITMAP
1800
1C00
0E00
0600
0000
F1E0
F1E0
F1E0
F1E0
F1E0
F1E0
F1E0
F1E0
FFE0
7FC0
ENDCHAR
STARTCHAR Uacute
ENCODING 218
SWIDTH 600 0
DWIDTH 12 0
BBX 11 15 0 0
BITMAP
0300
0700
0E00
0C00
0000
F1E0
F1E0
F1E0
F1E0
F1E0
F1E0
F1E0
F1E0
FFE0
7FC0
ENDCHAR
STARTCHAR Ucircumflex
ENCODING 219
SWIDTH 600 0
DWIDTH 12 0
BBX 11 15 0 0
BITMAP
0400
0E00
1B00
3180
0000
F1E0
F1E0
F1E0
F1E0
F1E0
F1E0
F1E0
F1E0
FFE0
7FC0
ENDCHAR
STARTCHAR Udieresis
ENCODING 220
SWIDTH 600 0
DWIDTH 12 0
BBX 11 15 0 0
BITMAP
71C0
71C0
71C0
0000
0000
F1E0
F1E0
F1E0
F1E0
F1E0
F1E0
F1E0
F1E0
FFE0
7FC0
ENDCHAR
STARTCHAR Yacute
ENCODING 221
SWIDTH 650 0
DWIDTH 13 0
BBX 12 15 0 0
BITMAP
0300
0700
0E00
0C00
0000
F0F0
F0F0
F0F0
F9F0
7FE0
3FC0
0F00
0F00
0F00
0F00
ENDCHAR
STARTCHAR Thorn
ENCODING 222
SWIDTH 600 0
DWIDTH 12 0
BBX 11 10 0 0
BITMAP
F000
F000
FFC0
FFE0
F1E0
F1E0
FFE0
FFC0
F000
F000
ENDCHAR
STARTCHAR germandbls
ENCODING 223
SWIDTH 600 0
DWIDTH 12 0
BBX 11 10 0 0
BITMAP
7FC0
FFE0
F1E0
F1E0
F7C0
F7C0
F1E0
F1E0
F7E0
77C0
ENDCHAR
STARTCHAR agrave
ENCODING 224
SWIDTH 600 0
DWIDTH 12 0
BBX 11 15 0 0
BITMAP
1800
1C00
0E00
0600
0000
7FC0
FFE0
F1E0
F1E0
FFE0
FFE0
F1E0
F1E0
F1E0
F1E0
ENDCHAR
STARTCHAR aacute
ENCODING 225
SWIDTH 600 0
DWIDTH 12 0
BBX 11 15 0 0
BITMAP
0300
0700
0E00
0C00
0000
7FC0
FFE0
F1E0
F1E0
FFE0
FFE0
F1E0
F1E0
F1E0
F1E0
ENDCHAR
STARTCHAR acircumflex
ENCODING 226
SWIDTH 600 0
DWIDTH 12 0
BBX 11 15 0 0
BITMAP
0400
0E00
1B00
3180
0000
7FC0
FFE0
F1E0
F1E0
FFE0
FFE0
F1E0
F1E0
F1E0
F1E0
ENDCHAR
STARTCHAR atilde
ENCODING 227
SWIDTH 600 0
DWIDTH 12 0
BBX 11 15 0 0
BITMAP
1980
3D80
3780
3300
0000
7FC0
FFE0
F1E0
F1E0
FFE0
FFE0
F1E0
F1E0
F1E0
F1E0
ENDCHAR
STARTCHAR adieresis
ENCODING 228
SWIDTH 600 0
DWIDTH 12 0
BBX 11 15 0 0
BITMAP
71C0
71C0
71C0
0000
0000
7FC0
FFE0
F1E0
F1E0
FFE0
FFE0
F1E0
F1E0
F1E0
F1E0
ENDCHAR
STARTCHAR aring
ENCODING 229
SWIDTH 600 0
DWIDTH 12 0
BBX 11 15 0 0
BITMAP
3F80
3180
3180
3F80
0000
7FC0
FFE0
F1E0
F1E0
FFE0
FFE0
F1E0
F1E0
F1E0
F1E0
ENDCHAR
STARTCHAR ae
ENCODING 230
SWIDTH 700 0
DWIDTH 14 0
BBX 13 10 0 0
BITMAP
7FF8
FFF8
E700
E700
FFC0
FFC0
E700
E700
E7F8
E7F8
ENDCHAR
STARTCHAR ccedilla
ENCODING 231
SWIDTH 600 0
DWIDTH 12 0
BBX 11 13 0 -3
BITMAP
7FC0
FFE0
F1E0
F1E0
F000
F000
F1E0
F1E0
FFE0
7FC0
0E00
0E00
1C00
ENDCHAR
STARTCHAR egrave
ENCODING 232
SWIDTH 600 0
DWIDTH 12 0
BBX 11 15 0 0
BITMAP
1800
1C00
0E00
0600
0000
7FE0
FFE0
F000
F000
FE00
FE00
F000
F000
FFE0
7FE0
ENDCHAR
STARTCHAR eacute
ENCODING 233
SWIDTH 600 0
DWIDTH 12 0
BBX 11 15 0 0
BITMAP
0300
0700
0E00
0C00
0000
7FE0
FFE0
F000
F000
FE00
FE00
F000
F000
FFE0
7FE0
ENDCHAR
STARTCHAR ecircumflex
ENCODING 234
SWIDTH 600 0
DWIDTH 12 0
BBX 11 15 0 0
BITMAP
0400
0E00
1B00
3180
0000
7FE0
FFE0
F000
F000
FE00
FE00
F000
F000
FFE0
7FE0
ENDCHAR
STARTCHAR edieresis
ENCODING 235
SWIDTH 600 0
DWIDTH 12 0
BBX 11 15 0 0
BITMAP
71C0
71C0
71C0
0000
0000
7FE0
FFE0
F000
F000
FE00
FE00
F000
F000
FFE0
7FE0
ENDCHAR
STARTCHAR igrave
ENCODING 236
SWIDTH 550 0
DWIDTH 11 0
BBX 10 15 0 0
BITMAP
1800
1C00
0E00
0600
0000
FFC0
FFC0
1E00
1E00
1E00
1E00
1E00
1E00
FFC0
FFC0
ENDCHAR
STARTCHAR iacute
ENCODING 237
SWIDTH 550 0
DWIDTH 11 0
BBX 10 15 0 0
BITMAP
0600
0E00
1C00
1800
0000
FFC0
FFC0
1E00
1E00
1E00
1E00
1E00
1E00
FFC0
FFC0
ENDCHAR
STARTCHAR icircumflex
ENCODING 238
SWIDTH 550 0
DWIDTH 11 0
BBX 10 15 0 0
BITMAP
0C00
1E00
3300
6180
0000
FFC0
FFC0
1E00
1E00
1E00
1E00
1E00
1E00
FFC0
FFC0
ENDCHAR
STARTCHAR idieresis
ENCODING 239
SWIDTH 550 0
DWIDTH 11 0
BBX 10 15 0 0
BITMAP
7380
7380
7380
0000
0000
FFC0
FFC0
1E00
1E00
1E00
1E00
1E00
1E00
FFC0
FFC0
ENDCHAR
STARTCHAR eth
ENCODING 240
SWIDTH 650 0
DWIDTH 13 0
BBX 12 10 0 0
BITMAP
7FC0
7FE0
79F0
78F0
FCF0
FCF0
78F0
79F0
7FE0
7FC0
ENDCHAR
STARTCHAR ntilde
ENCODING 241
SWIDTH 600 0
DWIDTH 12 0
BBX 11 15 0 0
BITMAP
1980
3D80
3780
3300
0000
F1E0
F9E0
FDE0
FFE0
FFE0
F7E0
F3E0
F1E0
F1E0
F1E0
ENDCHAR
STARTCHAR ograve
ENCODING 242
SWIDTH 600 0
DWIDTH 12 0
BBX 11 15 0 0
BITMAP
1800
1C00
0E00
0600
0000
7FC0
FFE0
F1E0
F1E0
F1E0
F1E0
F1E0
F1E0
FFE0
7FC0
ENDCHAR
STARTCHAR oacute
ENCODING 243
SWIDTH 600 0
DWIDTH 12 0
BBX 11 15 0 0
BITMAP
0300
0700
0E00
0C00
0000
7FC0
FFE0
F1E0
F1E0
F1E0
F1E0
F1E0
F1E0
FFE0
7FC0
ENDCHAR
STARTCHAR ocircumflex
ENCODING 244
SWIDTH 600 0
DWIDTH 12 0
BBX 11 15 0 0
BITMAP
0400
0E00
1B00
3180
0000
7FC0
FFE0
F1E0
F1E0
F1E0
F1E0
F1E0
F1E0
FFE0
7FC0
ENDCHAR
STARTCHAR otilde
ENCODING 245
SWIDTH 600 0
DWIDTH 12 0
BBX 11 15 0 0
BITMAP
1980
3D80
3780
3300
0000
7FC0
FFE0
F1E0
F1E0
F1E0
F1E0
F1E0
F1E0
FFE0
7FC0
ENDCHAR
STARTCHAR odieresis
ENCODING 246
SWIDTH 600 0
DWIDTH 12 0
BBX 11 15 0 0
BITMAP
71C0
71C0
71C0
0000
0000
7FC0
FFE0
F1E0
F1E0
F1E0
F1E0
F1E0
F1E0
FFE0
7FC0
ENDCHAR
STARTCHAR divide
ENCODING 247
SWIDTH 500 0
DWIDTH 10 0
BBX 9 10 0 0
BITMAP
1C00
1C00
1C00
0000
FF80
FF80
0000
1C00
1C00
1C00
ENDCHAR
STARTCHAR oslash
ENCODING 248
SWIDTH 600 0
DWIDTH 12 0
BBX 11 14 0 -2
BITMAP
0060
00E0
7FC0
FFE0
F3E0
F7E0
F7E0
FDE0
FDE0
F9E0
FFE0
7FC0
E000
C000
ENDCHAR
STARTCHAR ugrave
ENCODING 249
SWIDTH 600 0
DWIDTH 12 0
BBX 11 15 0 0
BITMAP
1800
1C00
0E00
0600
0000
F1E0
F1E0
F1E0
F1E0
F1E0
F1E0
F1E0
F1E0
FFE0
7FC0
ENDCHAR
STARTCHAR uacute
ENCODING 250
SWIDTH 600 0
DWIDTH 12 0
BBX 11 15 0 0
BITMAP
0300
0700
0E00
0C00
0000
F1E0
F1E0
F1E0
F1E0
F1E0
F1E0
F1E0
F1E0
FFE0
7FC0
ENDCHAR
STARTCHAR ucircumflex
ENCODING 251
SWIDTH 600 0
DWIDTH 12 0
BBX 11 15 0 0
BITMAP
0400
0E00
1B00
3180
0000
F1E0
F1E0
F1E0
F1E0
F1E0
F1E0
F1E0
F1E0
FFE0
7FC0
ENDCHAR
STARTCHAR udieresis
ENCODING 252
SWIDTH 600 0
DWIDTH 12 0
BBX 11 15 0 0
BITMAP
71C0
71C0
71C0
0000
0000
F1E0
F1E0
F1E0
F1E0
F1E0
F1E0
F1E0
F1E0
FFE0
7FC0
ENDCHAR
STARTCHAR yacute
ENCODING 253
SWIDTH 650 0
DWIDTH 13 0
BBX 12 15 0 0
BITMAP
0300
0700
0E00
0C00
0000
F0F0
F0F0
F0F0
F9F0
7FE0
3FC0
0F00
0F00
0F00
0F00
ENDCHAR
STARTCHAR thorn
ENCODING 254
SWIDTH 600 0
DWIDTH 12 0
BBX 11 14 0 -2
BITMAP
F000
F000
F000
FFC0
FFE0
F1E0
F1E0
F1E0
F1E0
FFE0
FFC0
F000
F000
F000
ENDCHAR
STARTCHAR ydieresis
ENCODING 255
SWIDTH 650 0
DWIDTH 13 0
BBX 12 15 0 0
BITMAP
39C0
39C0
39C0
0000
0000
F0F0
F0F0
F0F0
F9F0
7FE0
3FC0
0F00
0F00
0F00
0F00
ENDCHAR
STARTCHAR OE
ENCODING 338
SWIDTH 700 0
DWIDTH 14 0
BBX 13 10 0 0
BITMAP
7FF8
FFF8
E700
E700
E7C0
E7C0
E700
E700
FFF8
7FF8
ENDCHAR
STARTCHAR oe
ENCODING 339
SWIDTH 700 0
DWIDTH 14 0
BBX 13 10 0 0
BITMAP
7FF8
FFF8
E700
E700
E7C0
E7C0
E700
E700
FFF8
7FF8
ENDCHAR
STARTCHAR Scaron
ENCODING 352
SWIDTH 600 0
DWIDTH 12 0
BBX 11 15 0 0
BITMAP
3180
1B00
0E00
0400
0000
7FE0
FFE0
F000
F000
FFC0
7FE0
01E0
01E0
FFE0
FFC0
ENDCHAR
STARTCHAR scaron
ENCODING 353
SWIDTH 600 0
DWIDTH 12 0
BBX 11 15 0 0
BITMAP
3180
1B00
0E00
0400
0000
7FE0
FFE0
F000
F000
FFC0
7FE0
01E0
01E0
FFE0
FFC0
ENDCHAR
STARTCHAR Ydieresis
ENCODING 376
SWIDTH 650 0
DWIDTH 13 0
BBX 12 15 0 0
BITMAP
39C0
39C0
39C0
0000
0000
F0F0
F0F0
F0F0
F9F0
7FE0
3FC0
0F00
0F00
0F00
0F00
ENDCHAR
STARTCHAR florin
ENCODING 402
SWIDTH 450 0
DWIDTH 9 0
BBX 8 12 0 -2
BITMAP
3F
7F
78
78
FC
FC
78
78
78
78
78
F0
ENDCHAR
STARTCHAR circumflex
ENCODING 710
SWIDTH 400 0
DWIDTH 8 0
BBX 7 4 0 11
BITMAP
10
38
6C
C6
ENDCHAR
STARTCHAR tilde
ENCODING 732
SWIDTH 400 0
DWIDTH 8 0
BBX 7 4 0 11
BITMAP
66
F6
DE
CC
ENDCHAR
STARTCHAR endash
ENCODING 8211
SWIDTH 250 0
DWIDTH 5 0
BBX 4 2 0 4
BITMAP
F0
F0
ENDCHAR
STARTCHAR emdash
ENCODING 8212
SWIDTH 600 0
DWIDTH 12 0
BBX 11 2 0 4
BITMAP
FFE0
FFE0
ENDCHAR
STARTCHAR quoteleft
ENCODING 8216
SWIDTH 250 0
DWIDTH 5 0
BBX 4 4 0 8
BITMAP
C0
C0
F0
F0
ENDCHAR
STARTCHAR quoteright
ENCODING 8217
SWIDTH 250 0
DWIDTH 5 0
BBX 4 4 0 8
BITMAP
F0
F0
30
30
ENDCHAR
STARTCHAR quotesinglbase
ENCODING 8218
SWIDTH 200 0
DWIDTH 4 0
BBX 3 4 0 -2
BITMAP
E0
E0
E0
E0
ENDCHAR
STARTCHAR quotedblleft
ENCODING 8220
SWIDTH 500 0
DWIDTH 10 0
BBX 9 4 0 8
BITMAP
C600
C600
F780
F780
ENDCHAR
STARTCHAR quotedblright
ENCODING 8221
SWIDTH 500 0
DWIDTH 10 0
BBX 9 4 0 8
BITMAP
F780
F780
3180
3180
ENDCHAR
STARTCHAR quotedblbase
ENCODING 8222
SWIDTH 400 0
DWIDTH 8 0
BBX 7 4 0 -2
BITMAP
EE
EE
EE
EE
ENDCHAR
STARTCHAR dagger
ENCODING 8224
SWIDTH 600 0
DWIDTH 12 0
BBX 11 10 0 0
BITMAP
0E00
0E00
FFE0
FFE0
0E00
0E00
0E00
0E00
0E00
0E00
ENDCHAR
STARTCHAR daggerdbl
ENCODING 8225
SWIDTH 600 0
DWIDTH 12 0
BBX 11 10 0 0
BITMAP
0E00
0E00
FFE0
FFE0
0E00
0E00
FFE0
FFE0
0E00
0E00
ENDCHAR
STARTCHAR bullet
ENCODING 8226
SWIDTH 400 0
DWIDTH 8 0
BBX 7 8 0 1
BITMAP
10
38
7C
FE
FE
7C
38
10
ENDCHAR
STARTCHAR ellipsis
ENCODING 8230
SWIDTH 450 0
DWIDTH 9 0
BBX 8 2 0 0
BITMAP
DB
DB
ENDCHAR
STARTCHAR perthousand
ENCODING 8240
SWIDTH 950 0
DWIDTH 19 0
BBX 18 10 0 0
BITMAP
F8F000
D9F000
FBE000
07C000
0F8000
1F0000
3E0000
7DF7C0
F9B6C0
F1F7C0
ENDCHAR
STARTCHAR guilsinglleft
ENCODING 8249
SWIDTH 300 0
DWIDTH 6 0
BBX 5 8 0 1
BITMAP
18
38
70
E0
E0
70
38
18
ENDCHAR
STARTCHAR guilsinglright
ENCODING 8250
SWIDTH 300 0
DWIDTH 6 0
BBX 5 8 0 1
BITMAP
C0
E0
70
38
38
70
E0
C0
ENDCHAR
STARTCHAR trademark
ENCODING 8482
SWIDTH 750 0
DWIDTH 15 0
BBX 14 5 0 5
BITMAP
FD8C
FDDC
31FC
31AC
318C
ENDCHAR
STARTCHAR periodcentered.dup1
ENCODING 8729
SWIDTH 250 0
DWIDTH 5 0
BBX 4 4 0 3
BITMAP
F0
F0
F0
F0
ENDCHAR
STARTCHAR .null
ENCODING 57344
SWIDTH 0 0
DWIDTH 0 0
BBX 1 1 0 0
BITMAP
00
ENDCHAR
STARTCHAR nonmarkingreturn
ENCODING 57345
SWIDTH 500 0
DWIDTH 10 0
BBX 1 1 0 0
BITMAP
00
ENDCHAR
STARTCHAR .notdef
ENCODING -1
SWIDTH 736 0
DWIDTH 15 0
BBX 15 15 0 0
BITMAP
46F8
7FFC
7FFC
F80C
70CC
70FC
74FC
7404
7004
64FC
E67C
CE06
7FCC
FFFC
572C
ENDCHAR
ENDFONT
